<svg width="24" height="24" viewBox="0 0 24 24" fill="none" xmlns="http://www.w3.org/2000/svg">
<path d="M21.0304 5.72032C21.1708 5.86094 21.2497 6.05157 21.2497 6.25032C21.2497 6.44907 21.1708 6.63969 21.0304 6.78032L9.53035 18.2803C9.45992 18.3513 9.37597 18.4074 9.28346 18.4453C9.19096 18.4832 9.09178 18.5022 8.99181 18.501C8.89185 18.4999 8.79312 18.4787 8.70149 18.4388C8.60985 18.3988 8.52717 18.3408 8.45835 18.2683L2.95835 12.5183C2.88719 12.4478 2.83088 12.3637 2.79275 12.271C2.75462 12.1784 2.73545 12.079 2.73636 11.9788C2.73727 11.8786 2.75825 11.7796 2.79806 11.6877C2.83787 11.5957 2.8957 11.5127 2.96814 11.4434C3.04058 11.3742 3.12615 11.3202 3.21981 11.2846C3.31347 11.249 3.41332 11.2325 3.51345 11.2361C3.61358 11.2398 3.71198 11.2634 3.80282 11.3057C3.89366 11.348 3.97511 11.408 4.04235 11.4823L9.01235 16.6773L19.9704 5.72032C20.111 5.57987 20.3016 5.50098 20.5004 5.50098C20.6991 5.50098 20.8897 5.57987 21.0304 5.72032Z" fill="#4051B5"/>
</svg>
